<svg xmlns="http://www.w3.org/2000/svg" viewBox="0 0 390 800" width="390" height="800"><defs><clipPath id="pc"><rect width="390" height="800" rx="0"/></clipPath></defs><g clip-path="url(#pc)"><rect x="0" y="0" width="390" height="800" rx="0" fill="#FFFFFF"/><text x="28" y="34" font-family="Poppins, Helvetica, Arial, sans-serif" font-size="14" font-weight="500" fill="#12303A" text-anchor="start">9:30</text><path d="M318 25h16l-8 9z" fill="#12303A"/><path d="M341 34l9-12v12z" fill="#12303A"/><rect x="357" y="24" width="7" height="11" rx="2" fill="#12303A"/><text x="352" y="80" font-family="Poppins, Helvetica, Arial, sans-serif" font-size="14" font-weight="500" fill="#6B7C85" text-anchor="end">Skip</text><rect x="30" y="112" width="330" height="330" rx="28" fill="#0F2A33"/><rect x="120" y="156" width="150" height="220" rx="14" fill="#FFFFFF" fill-opacity="0.96"/><rect x="138" y="190" width="80" height="5" rx="2.5" fill="#C9D4D9"/><rect x="138" y="208" width="114" height="5" rx="2.5" fill="#C9D4D9"/><rect x="138" y="226" width="114" height="5" rx="2.5" fill="#C9D4D9"/><rect x="138" y="244" width="80" height="5" rx="2.5" fill="#C9D4D9"/><rect x="138" y="262" width="114" height="5" rx="2.5" fill="#C9D4D9"/><rect x="138" y="280" width="114" height="5" rx="2.5" fill="#C9D4D9"/><rect x="138" y="298" width="80" height="5" rx="2.5" fill="#C9D4D9"/><rect x="138" y="166" width="60" height="7" rx="3.5" fill="#12303A"/><path d="M104 168V140H132" fill="none" stroke="#14909A" stroke-width="4" stroke-linecap="round" stroke-linejoin="round"/><path d="M286 168V140H258" fill="none" stroke="#14909A" stroke-width="4" stroke-linecap="round" stroke-linejoin="round"/><path d="M104 364V392H132" fill="none" stroke="#14909A" stroke-width="4" stroke-linecap="round" stroke-linejoin="round"/><path d="M286 364V392H258" fill="none" stroke="#14909A" stroke-width="4" stroke-linecap="round" stroke-linejoin="round"/><rect x="124" y="262" width="142" height="3" rx="1.5" fill="#2CC4CF"/><rect x="124" y="258" width="142" height="11" rx="5" fill="#2CC4CF" fill-opacity="0.18"/><text x="195" y="506" font-family="Poppins, Helvetica, Arial, sans-serif" font-size="26" font-weight="700" fill="#12303A" text-anchor="middle">Scan Anything</text><text x="195" y="540" font-family="Poppins, Helvetica, Arial, sans-serif" font-size="13.5" font-weight="400" fill="#6B7C85" text-anchor="middle">Turn paper into crisp, searchable PDFs</text><text x="195" y="560" font-family="Poppins, Helvetica, Arial, sans-serif" font-size="13.5" font-weight="400" fill="#6B7C85" text-anchor="middle">in seconds, right from your phone.</text><rect x="163" y="592" width="22" height="6" rx="3" fill="#14909A"/><circle cx="199" cy="595" r="3" fill="#CBD5DA"/><circle cx="213" cy="595" r="3" fill="#CBD5DA"/><rect x="30" y="650" width="330" height="56" rx="16" fill="#14909A"/><text x="195.0" y="683.6" font-family="Poppins, Helvetica, Arial, sans-serif" font-size="16" font-weight="700" fill="#FFFFFF" text-anchor="middle">Get Started</text><text x="195" y="742" font-family="Poppins, Helvetica, Arial, sans-serif" font-size="11" font-weight="400" fill="#9AA8B0" text-anchor="middle">By continuing you agree to Terms &amp; Privacy</text></g></svg>