<svg xmlns="http://www.w3.org/2000/svg" viewBox="0 0 390 800" width="390" height="800"><defs><clipPath id="pc"><rect width="390" height="800" rx="0"/></clipPath></defs><g clip-path="url(#pc)"><rect x="0" y="0" width="390" height="800" rx="0" fill="#0F1A1F"/><text x="28" y="34" font-family="Poppins, Helvetica, Arial, sans-serif" font-size="14" font-weight="500" fill="#FFFFFF" text-anchor="start">9:30</text><path d="M318 25h16l-8 9z" fill="#FFFFFF"/><path d="M341 34l9-12v12z" fill="#FFFFFF"/><rect x="357" y="24" width="7" height="11" rx="2" fill="#FFFFFF"/><g transform="translate(22.0 60.0) scale(1.0)" fill="none" stroke="#FFFFFF" stroke-width="2.2" stroke-linecap="round" stroke-linejoin="round"><path d="M15 5l-7 7 7 7"/></g><text x="195" y="79" font-family="Poppins, Helvetica, Arial, sans-serif" font-size="17" font-weight="700" fill="#FFFFFF" text-anchor="middle">Adjust edges</text><text x="354" y="78" font-family="Poppins, Helvetica, Arial, sans-serif" font-size="15" font-weight="700" fill="#2CC4CF" text-anchor="end">Next</text><rect x="40" y="120" width="310" height="470" rx="10" fill="#16242A"/><rect x="85" y="164" width="226" height="340" rx="6" fill="#000" fill-opacity="0.08"/><rect x="82" y="160" width="226" height="340" rx="6" fill="#FFFFFF" stroke="#E6ECEF" stroke-width="1"/><text x="195.0" y="190" font-family="Poppins, Helvetica, Arial, sans-serif" font-size="11" font-weight="700" fill="#12303A" text-anchor="middle">INVOICE</text><line x1="106" y1="202" x2="284" y2="202" stroke="#D5DDE1" stroke-width="1"/><rect x="106" y="222" width="178" height="3.4" rx="1.7" fill="#D5DDE1"/><rect x="106" y="235" width="178" height="3.4" rx="1.7" fill="#D5DDE1"/><rect x="106" y="248" width="97.9" height="3.4" rx="1.7" fill="#D5DDE1"/><rect x="106" y="261" width="178" height="3.4" rx="1.7" fill="#D5DDE1"/><rect x="106" y="274" width="178" height="3.4" rx="1.7" fill="#D5DDE1"/><rect x="106" y="287" width="178" height="3.4" rx="1.7" fill="#D5DDE1"/><rect x="106" y="300" width="97.9" height="3.4" rx="1.7" fill="#D5DDE1"/><rect x="106" y="313" width="178" height="3.4" rx="1.7" fill="#D5DDE1"/><rect x="106" y="326" width="178" height="3.4" rx="1.7" fill="#D5DDE1"/><rect x="106" y="339" width="178" height="3.4" rx="1.7" fill="#D5DDE1"/><rect x="106" y="352" width="178" height="3.4" rx="1.7" fill="#D5DDE1"/><rect x="106" y="365" width="97.9" height="3.4" rx="1.7" fill="#D5DDE1"/><rect x="106" y="378" width="178" height="3.4" rx="1.7" fill="#D5DDE1"/><rect x="106" y="391" width="178" height="3.4" rx="1.7" fill="#D5DDE1"/><rect x="106" y="404" width="178" height="3.4" rx="1.7" fill="#D5DDE1"/><rect x="106" y="417" width="178" height="3.4" rx="1.7" fill="#D5DDE1"/><rect x="106" y="430" width="97.9" height="3.4" rx="1.7" fill="#D5DDE1"/><rect x="106" y="443" width="178" height="3.4" rx="1.7" fill="#D5DDE1"/><rect x="106" y="456" width="178" height="3.4" rx="1.7" fill="#D5DDE1"/><rect x="106" y="469" width="178" height="3.4" rx="1.7" fill="#D5DDE1"/><path d="M70 148L318 168L304 512L86 496Z" fill="#2CC4CF" stroke="#2CC4CF" stroke-width="2.4" stroke-linecap="round" stroke-linejoin="round" fill-opacity="0.12"/><circle cx="70" cy="148" r="11" fill="#FFFFFF"/><circle cx="70" cy="148" r="6" fill="#2CC4CF"/><circle cx="318" cy="168" r="11" fill="#FFFFFF"/><circle cx="318" cy="168" r="6" fill="#2CC4CF"/><circle cx="304" cy="512" r="11" fill="#FFFFFF"/><circle cx="304" cy="512" r="6" fill="#2CC4CF"/><circle cx="86" cy="496" r="11" fill="#FFFFFF"/><circle cx="86" cy="496" r="6" fill="#2CC4CF"/><rect x="186" y="150" width="16" height="16" rx="8" fill="#FFFFFF"/><rect x="190" y="154" width="8" height="8" rx="4" fill="#2CC4CF"/><rect x="303" y="332" width="16" height="16" rx="8" fill="#FFFFFF"/><rect x="307" y="336" width="8" height="8" rx="4" fill="#2CC4CF"/><rect x="187" y="496" width="16" height="16" rx="8" fill="#FFFFFF"/><rect x="191" y="500" width="8" height="8" rx="4" fill="#2CC4CF"/><rect x="70" y="314" width="16" height="16" rx="8" fill="#FFFFFF"/><rect x="74" y="318" width="8" height="8" rx="4" fill="#2CC4CF"/><rect x="150" y="620" width="90" height="26" rx="13" fill="#000" fill-opacity="0.45"/><text x="195" y="638" font-family="Poppins, Helvetica, Arial, sans-serif" font-size="11.5" font-weight="500" fill="#FFFFFF" text-anchor="middle">Page 1 / 3</text><rect x="0" y="676" width="390" height="124" rx="0" fill="#0A1418"/><rect x="29" y="696" width="52" height="52" rx="16" fill="#FFFFFF" fill-opacity="0.1"/><g transform="translate(44.0 711.0) scale(0.9166666666666666)" fill="none" stroke="#FFFFFF" stroke-width="1.9" stroke-linecap="round" stroke-linejoin="round"><path d="M4 8h3l2-3h6l2 3h3v11H4z"/><circle cx="12" cy="13" r="3.5"/></g><text x="55" y="772" font-family="Poppins, Helvetica, Arial, sans-serif" font-size="11" font-weight="400" fill="#C6D3D8" text-anchor="middle">Retake</text><rect x="122" y="696" width="52" height="52" rx="16" fill="#FFFFFF" fill-opacity="0.1"/><g transform="translate(137.0 711.0) scale(0.9166666666666666)" fill="none" stroke="#FFFFFF" stroke-width="1.9" stroke-linecap="round" stroke-linejoin="round"><path d="M20 12a8 8 0 1 1-3-6.2M20 4v5h-5"/></g><text x="148" y="772" font-family="Poppins, Helvetica, Arial, sans-serif" font-size="11" font-weight="400" fill="#C6D3D8" text-anchor="middle">Rotate</text><rect x="215" y="696" width="52" height="52" rx="16" fill="#FFFFFF" fill-opacity="0.1"/><g transform="translate(230.0 711.0) scale(0.9166666666666666)" fill="none" stroke="#FFFFFF" stroke-width="1.9" stroke-linecap="round" stroke-linejoin="round"><path d="M7 3v14h14M3 7h14v14"/></g><text x="241" y="772" font-family="Poppins, Helvetica, Arial, sans-serif" font-size="11" font-weight="400" fill="#C6D3D8" text-anchor="middle">Auto crop</text><rect x="308" y="696" width="52" height="52" rx="16" fill="#FFFFFF" fill-opacity="0.1"/><g transform="translate(323.0 711.0) scale(0.9166666666666666)" fill="none" stroke="#FFFFFF" stroke-width="1.9" stroke-linecap="round" stroke-linejoin="round"><path d="M12 5v14M5 12h14"/></g><text x="334" y="772" font-family="Poppins, Helvetica, Arial, sans-serif" font-size="11" font-weight="400" fill="#C6D3D8" text-anchor="middle">Add page</text></g></svg>