<svg xmlns="http://www.w3.org/2000/svg" viewBox="0 0 390 800" width="390" height="800"><defs><clipPath id="pc"><rect width="390" height="800" rx="0"/></clipPath></defs><g clip-path="url(#pc)"><rect x="0" y="0" width="390" height="800" rx="0" fill="#F5F8FA"/><text x="28" y="34" font-family="Poppins, Helvetica, Arial, sans-serif" font-size="14" font-weight="500" fill="#12303A" text-anchor="start">9:30</text><path d="M318 25h16l-8 9z" fill="#12303A"/><path d="M341 34l9-12v12z" fill="#12303A"/><rect x="357" y="24" width="7" height="11" rx="2" fill="#12303A"/><text x="28" y="79" font-family="Poppins, Helvetica, Arial, sans-serif" font-size="20" font-weight="700" fill="#12303A" text-anchor="start">Workshop</text><text x="24" y="120" font-family="Poppins, Helvetica, Arial, sans-serif" font-size="15" font-weight="700" fill="#12303A" text-anchor="start">Convert</text><rect x="24" y="132" width="76" height="92" rx="14" fill="#FFFFFF" stroke="#E6ECEF" stroke-width="1"/><circle cx="62" cy="166" r="20" fill="#E5484D" fill-opacity="0.12"/><rect x="48" y="154" width="28" height="24" rx="6" fill="#E5484D"/><text x="62" y="171" font-family="Poppins, Helvetica, Arial, sans-serif" font-size="10" font-weight="700" fill="#fff" text-anchor="middle">PDF</text><text x="62" y="208" font-family="Poppins, Helvetica, Arial, sans-serif" font-size="9.8" font-weight="400" fill="#12303A" text-anchor="middle">Image to PDF</text><rect x="109" y="132" width="76" height="92" rx="14" fill="#FFFFFF" stroke="#E6ECEF" stroke-width="1"/><circle cx="147" cy="166" r="20" fill="#2FB67C" fill-opacity="0.12"/><rect x="133" y="154" width="28" height="24" rx="6" fill="#2FB67C"/><text x="147" y="171" font-family="Poppins, Helvetica, Arial, sans-serif" font-size="10" font-weight="700" fill="#fff" text-anchor="middle">IMG</text><text x="147" y="208" font-family="Poppins, Helvetica, Arial, sans-serif" font-size="9.8" font-weight="400" fill="#12303A" text-anchor="middle">PDF to Image</text><rect x="194" y="132" width="76" height="92" rx="14" fill="#FFFFFF" stroke="#E6ECEF" stroke-width="1"/><circle cx="232" cy="166" r="20" fill="#3B82F6" fill-opacity="0.12"/><rect x="218" y="154" width="28" height="24" rx="6" fill="#3B82F6"/><text x="232" y="171" font-family="Poppins, Helvetica, Arial, sans-serif" font-size="10" font-weight="700" fill="#fff" text-anchor="middle">W</text><text x="232" y="208" font-family="Poppins, Helvetica, Arial, sans-serif" font-size="9.8" font-weight="400" fill="#12303A" text-anchor="middle">PDF to Word</text><rect x="279" y="132" width="76" height="92" rx="14" fill="#FFFFFF" stroke="#E6ECEF" stroke-width="1"/><circle cx="317" cy="166" r="20" fill="#1F9D55" fill-opacity="0.12"/><rect x="303" y="154" width="28" height="24" rx="6" fill="#1F9D55"/><text x="317" y="171" font-family="Poppins, Helvetica, Arial, sans-serif" font-size="10" font-weight="700" fill="#fff" text-anchor="middle">X</text><text x="317" y="208" font-family="Poppins, Helvetica, Arial, sans-serif" font-size="9.8" font-weight="400" fill="#12303A" text-anchor="middle">PDF to Excel</text><text x="24" y="258" font-family="Poppins, Helvetica, Arial, sans-serif" font-size="15" font-weight="700" fill="#12303A" text-anchor="start">Edit PDF</text><rect x="24" y="270" width="76" height="92" rx="14" fill="#FFFFFF" stroke="#E6ECEF" stroke-width="1"/><g transform="translate(49.0 291.0) scale(1.0833333333333333)" fill="none" stroke="#14909A" stroke-width="1.7" stroke-linecap="round" stroke-linejoin="round"><path d="M6 4v6a6 6 0 0 0 6 6M18 4v6a6 6 0 0 1-6 6M12 16v5"/></g><text x="62" y="346" font-family="Poppins, Helvetica, Arial, sans-serif" font-size="9.8" font-weight="400" fill="#12303A" text-anchor="middle">Merge PDF</text><rect x="109" y="270" width="76" height="92" rx="14" fill="#FFFFFF" stroke="#E6ECEF" stroke-width="1"/><g transform="translate(134.0 291.0) scale(1.0833333333333333)" fill="none" stroke="#14909A" stroke-width="1.7" stroke-linecap="round" stroke-linejoin="round"><path d="M12 3v7M12 10l-6 6v5M12 10l6 6v5"/></g><text x="147" y="346" font-family="Poppins, Helvetica, Arial, sans-serif" font-size="9.8" font-weight="400" fill="#12303A" text-anchor="middle">Split PDF</text><rect x="194" y="270" width="76" height="92" rx="14" fill="#FFFFFF" stroke="#E6ECEF" stroke-width="1"/><g transform="translate(219.0 291.0) scale(1.0833333333333333)" fill="none" stroke="#14909A" stroke-width="1.7" stroke-linecap="round" stroke-linejoin="round"><path d="M12 3v7l-3-3M12 10l3-3M12 21v-7l-3 3M12 14l3 3"/></g><text x="232" y="346" font-family="Poppins, Helvetica, Arial, sans-serif" font-size="9.8" font-weight="400" fill="#12303A" text-anchor="middle">Compress PDF</text><rect x="279" y="270" width="76" height="92" rx="14" fill="#FFFFFF" stroke="#E6ECEF" stroke-width="1"/><g transform="translate(304.0 291.0) scale(1.0833333333333333)" fill="none" stroke="#14909A" stroke-width="1.7" stroke-linecap="round" stroke-linejoin="round"><path d="M20 12a8 8 0 1 1-3-6.2M20 4v5h-5"/></g><text x="317" y="346" font-family="Poppins, Helvetica, Arial, sans-serif" font-size="9.8" font-weight="400" fill="#12303A" text-anchor="middle">Rotate PDF</text><rect x="24" y="372" width="76" height="92" rx="14" fill="#FFFFFF" stroke="#E6ECEF" stroke-width="1"/><g transform="translate(49.0 393.0) scale(1.0833333333333333)" fill="none" stroke="#14909A" stroke-width="1.7" stroke-linecap="round" stroke-linejoin="round"><path d="M4 7h16M9 7V4h6v3M6 7l1 13h10l1-13M10 11v6M14 11v6"/></g><text x="62" y="448" font-family="Poppins, Helvetica, Arial, sans-serif" font-size="9.8" font-weight="400" fill="#12303A" text-anchor="middle">Delete Pages</text><rect x="109" y="372" width="76" height="92" rx="14" fill="#FFFFFF" stroke="#E6ECEF" stroke-width="1"/><g transform="translate(134.0 393.0) scale(1.0833333333333333)" fill="none" stroke="#14909A" stroke-width="1.7" stroke-linecap="round" stroke-linejoin="round"><path d="M7 4v16M7 4L4 7M7 4l3 3M17 20V4M17 20l-3-3M17 20l3-3"/></g><text x="147" y="448" font-family="Poppins, Helvetica, Arial, sans-serif" font-size="9.8" font-weight="400" fill="#12303A" text-anchor="middle">Reorder Pages</text><rect x="194" y="372" width="76" height="92" rx="14" fill="#FFFFFF" stroke="#E6ECEF" stroke-width="1"/><g transform="translate(219.0 393.0) scale(1.0833333333333333)" fill="none" stroke="#14909A" stroke-width="1.7" stroke-linecap="round" stroke-linejoin="round"><path d="M4 14v5h16v-5M12 3v11M8 7l4-4 4 4"/></g><text x="232" y="448" font-family="Poppins, Helvetica, Arial, sans-serif" font-size="9.8" font-weight="400" fill="#12303A" text-anchor="middle">Extract Pages</text><rect x="279" y="372" width="76" height="92" rx="14" fill="#FFFFFF" stroke="#E6ECEF" stroke-width="1"/><g transform="translate(304.0 393.0) scale(1.0833333333333333)" fill="none" stroke="#14909A" stroke-width="1.7" stroke-linecap="round" stroke-linejoin="round"><rect x="5" y="11" width="14" height="10" rx="2"/><path d="M8 11V8a4 4 0 0 1 8 0v3"/></g><text x="317" y="448" font-family="Poppins, Helvetica, Arial, sans-serif" font-size="9.8" font-weight="400" fill="#12303A" text-anchor="middle">Add Password</text><text x="24" y="494" font-family="Poppins, Helvetica, Arial, sans-serif" font-size="15" font-weight="700" fill="#12303A" text-anchor="start">More Tools</text><rect x="24" y="506" width="342" height="204" rx="18" fill="#FFFFFF" stroke="#E6ECEF" stroke-width="1"/><g transform="translate(40.0 525.0) scale(1.0)" fill="none" stroke="#14909A" stroke-width="1.7" stroke-linecap="round" stroke-linejoin="round"><path d="M4 20l1-5L16 4l4 4L9 19z"/></g><text x="80" y="534" font-family="Poppins, Helvetica, Arial, sans-serif" font-size="13.5" font-weight="500" fill="#12303A" text-anchor="start">Sign Document</text><text x="80" y="552" font-family="Poppins, Helvetica, Arial, sans-serif" font-size="10.8" font-weight="400" fill="#6B7C85" text-anchor="start">Add signature to your documents</text><g transform="translate(336.0 529.0) scale(0.6666666666666666)" fill="none" stroke="#12303A" stroke-width="2" stroke-linecap="round" stroke-linejoin="round"><path d="M9 5l7 7-7 7"/></g><line x1="80" y1="561" x2="366" y2="561" stroke="#E6ECEF" stroke-width="1"/><g transform="translate(40.0 575.0) scale(1.0)" fill="none" stroke="#14909A" stroke-width="1.7" stroke-linecap="round" stroke-linejoin="round"><path d="M12 3l9 17H3z"/><path d="M12 10v4M12 17v.5"/></g><text x="80" y="584" font-family="Poppins, Helvetica, Arial, sans-serif" font-size="13.5" font-weight="500" fill="#12303A" text-anchor="start">Watermark</text><text x="80" y="602" font-family="Poppins, Helvetica, Arial, sans-serif" font-size="10.8" font-weight="400" fill="#6B7C85" text-anchor="start">Add watermark to your documents</text><g transform="translate(336.0 579.0) scale(0.6666666666666666)" fill="none" stroke="#12303A" stroke-width="2" stroke-linecap="round" stroke-linejoin="round"><path d="M9 5l7 7-7 7"/></g><line x1="80" y1="611" x2="366" y2="611" stroke="#E6ECEF" stroke-width="1"/><g transform="translate(40.0 625.0) scale(1.0)" fill="none" stroke="#14909A" stroke-width="1.7" stroke-linecap="round" stroke-linejoin="round"><path d="M4 8V5a1 1 0 0 1 1-1h3M16 4h3a1 1 0 0 1 1 1v3M20 16v3a1 1 0 0 1-1 1h-3M8 20H5a1 1 0 0 1-1-1v-3M8 9h8M8 12h8M8 15h5"/></g><text x="80" y="634" font-family="Poppins, Helvetica, Arial, sans-serif" font-size="13.5" font-weight="500" fill="#12303A" text-anchor="start">OCR</text><text x="80" y="652" font-family="Poppins, Helvetica, Arial, sans-serif" font-size="10.8" font-weight="400" fill="#6B7C85" text-anchor="start">Extract text from images</text><g transform="translate(336.0 629.0) scale(0.6666666666666666)" fill="none" stroke="#12303A" stroke-width="2" stroke-linecap="round" stroke-linejoin="round"><path d="M9 5l7 7-7 7"/></g><line x1="80" y1="661" x2="366" y2="661" stroke="#E6ECEF" stroke-width="1"/><g transform="translate(40.0 675.0) scale(1.0)" fill="none" stroke="#14909A" stroke-width="1.7" stroke-linecap="round" stroke-linejoin="round"><rect x="3" y="3" width="7" height="7"/><rect x="14" y="3" width="7" height="7"/><rect x="3" y="14" width="7" height="7"/><path d="M14 14h3v3h-3zM19 14v2M14 20h7"/></g><text x="80" y="684" font-family="Poppins, Helvetica, Arial, sans-serif" font-size="13.5" font-weight="500" fill="#12303A" text-anchor="start">QR Code Generator</text><text x="80" y="702" font-family="Poppins, Helvetica, Arial, sans-serif" font-size="10.8" font-weight="400" fill="#6B7C85" text-anchor="start">Create your own QR codes</text><g transform="translate(336.0 679.0) scale(0.6666666666666666)" fill="none" stroke="#12303A" stroke-width="2" stroke-linecap="round" stroke-linejoin="round"><path d="M9 5l7 7-7 7"/></g><rect x="0" y="716" width="390" height="84" rx="0" fill="#FFFFFF"/><line x1="0" y1="716" x2="390" y2="716" stroke="#E6ECEF" stroke-width="1"/><g transform="translate(36.0 730.0) scale(1.0)" fill="none" stroke="#6B7C85" stroke-width="1.8" stroke-linecap="round" stroke-linejoin="round"><path d="M3 11l9-8 9 8v9a1 1 0 0 1-1 1h-5v-6h-6v6H4a1 1 0 0 1-1-1z"/></g><text x="48" y="774" font-family="Poppins, Helvetica, Arial, sans-serif" font-size="10.5" font-weight="400" fill="#6B7C85" text-anchor="middle">Home</text><g transform="translate(114.0 730.0) scale(1.0)" fill="none" stroke="#6B7C85" stroke-width="1.8" stroke-linecap="round" stroke-linejoin="round"><path d="M6 3h8l5 5v13H6z"/><path d="M14 3v5h5M9 13h7M9 17h7"/></g><text x="126" y="774" font-family="Poppins, Helvetica, Arial, sans-serif" font-size="10.5" font-weight="400" fill="#6B7C85" text-anchor="middle">Documents</text><g transform="translate(258.0 730.0) scale(1.0)" fill="#E3F3F4" stroke="#14909A" stroke-width="1.8" stroke-linecap="round" stroke-linejoin="round"><path d="M15 5a4 4 0 0 0-4 5L4 17a2 2 0 0 0 3 3l7-7a4 4 0 0 0 5-4l-3 3-3-1-1-3z"/></g><text x="270" y="774" font-family="Poppins, Helvetica, Arial, sans-serif" font-size="10.5" font-weight="500" fill="#14909A" text-anchor="middle">Tools</text><g transform="translate(333.0 730.0) scale(1.0)" fill="none" stroke="#6B7C85" stroke-width="1.8" stroke-linecap="round" stroke-linejoin="round"><circle cx="12" cy="8" r="4"/><path d="M4 21c0-4 4-6 8-6s8 2 8 6"/></g><text x="345" y="774" font-family="Poppins, Helvetica, Arial, sans-serif" font-size="10.5" font-weight="400" fill="#6B7C85" text-anchor="middle">Profile</text><circle cx="195" cy="727" r="36" fill="#FFFFFF"/><circle cx="195" cy="731" r="33" fill="#12303A"/><g transform="translate(181.0 717.0) scale(1.1666666666666667)" fill="none" stroke="#FFFFFF" stroke-width="2" stroke-linecap="round" stroke-linejoin="round"><path d="M4 8h3l2-3h6l2 3h3v11H4z"/><circle cx="12" cy="13" r="3.5"/></g><rect x="145" y="788" width="100" height="4" rx="2" fill="#222"/></g></svg>