<svg xmlns="http://www.w3.org/2000/svg" viewBox="0 0 390 800" width="390" height="800"><defs><clipPath id="pc"><rect width="390" height="800" rx="0"/></clipPath></defs><g clip-path="url(#pc)"><rect x="0" y="0" width="390" height="800" rx="0" fill="#F5F8FA"/><text x="28" y="34" font-family="Poppins, Helvetica, Arial, sans-serif" font-size="14" font-weight="500" fill="#12303A" text-anchor="start">9:30</text><path d="M318 25h16l-8 9z" fill="#12303A"/><path d="M341 34l9-12v12z" fill="#12303A"/><rect x="357" y="24" width="7" height="11" rx="2" fill="#12303A"/><text x="28" y="79" font-family="Poppins, Helvetica, Arial, sans-serif" font-size="20" font-weight="700" fill="#12303A" text-anchor="start">Profile</text><g transform="translate(348.0 60.0) scale(1.0)" fill="none" stroke="#12303A" stroke-width="1.9" stroke-linecap="round" stroke-linejoin="round"><circle cx="12" cy="12" r="3"/><circle cx="12" cy="12" r="7.5"/><path d="M12 2v2.5M12 19.5V22M2 12h2.5M19.5 12H22"/></g><rect x="24" y="104" width="342" height="112" rx="20" fill="#FFFFFF" stroke="#E6ECEF" stroke-width="1"/><circle cx="74" cy="160" r="32" fill="#14909A"/><text x="74" y="170" font-family="Poppins, Helvetica, Arial, sans-serif" font-size="22" font-weight="700" fill="#fff" text-anchor="middle">JD</text><text x="122" y="150" font-family="Poppins, Helvetica, Arial, sans-serif" font-size="17" font-weight="700" fill="#12303A" text-anchor="start">John Doe</text><text x="122" y="172" font-family="Poppins, Helvetica, Arial, sans-serif" font-size="12" font-weight="400" fill="#6B7C85" text-anchor="start">john.doe@email.com</text><rect x="122" y="184" width="74" height="22" rx="11" fill="#E3F3F4"/><text x="159" y="199" font-family="Poppins, Helvetica, Arial, sans-serif" font-size="10.5" font-weight="700" fill="#14909A" text-anchor="middle">Free plan</text><rect x="24" y="230" width="342" height="100" rx="20" fill="#0F2A33"/><text x="44" y="262" font-family="Poppins, Helvetica, Arial, sans-serif" font-size="12" font-weight="400" fill="#B7CDD2" text-anchor="start">Storage</text><text x="44" y="290" font-family="Poppins, Helvetica, Arial, sans-serif" font-size="22" font-weight="700" fill="#fff" text-anchor="start">2.4 GB</text><text x="120" y="290" font-family="Poppins, Helvetica, Arial, sans-serif" font-size="12" font-weight="400" fill="#B7CDD2" text-anchor="start">of 5 GB used</text><rect x="44" y="304" width="302" height="8" rx="4" fill="#fff" fill-opacity="0.15"/><rect x="44" y="304" width="145" height="8" rx="4" fill="#2CC4CF"/><rect x="24" y="346" width="342" height="330" rx="20" fill="#FFFFFF" stroke="#E6ECEF" stroke-width="1"/><g transform="translate(41.0 364.0) scale(0.9166666666666666)" fill="none" stroke="#14909A" stroke-width="1.7" stroke-linecap="round" stroke-linejoin="round"><path d="M7 18a4 4 0 0 1-.5-8A6 6 0 0 1 18 11a3.5 3.5 0 0 1-.5 7z"/></g><text x="82" y="380" font-family="Poppins, Helvetica, Arial, sans-serif" font-size="13.5" font-weight="500" fill="#12303A" text-anchor="start">Backup &amp; Sync</text><text x="334" y="380" font-family="Poppins, Helvetica, Arial, sans-serif" font-size="12" font-weight="400" fill="#6B7C85" text-anchor="end">On</text><g transform="translate(345.0 368.0) scale(0.5833333333333334)" fill="none" stroke="#9AA8B0" stroke-width="2" stroke-linecap="round" stroke-linejoin="round"><path d="M9 5l7 7-7 7"/></g><line x1="82" y1="398" x2="366" y2="398" stroke="#E6ECEF" stroke-width="1"/><g transform="translate(41.0 410.0) scale(0.9166666666666666)" fill="none" stroke="#14909A" stroke-width="1.7" stroke-linecap="round" stroke-linejoin="round"><path d="M12 3l8 3v6c0 5-3.5 8-8 9-4.5-1-8-4-8-9V6z"/></g><text x="82" y="426" font-family="Poppins, Helvetica, Arial, sans-serif" font-size="13.5" font-weight="500" fill="#12303A" text-anchor="start">App Lock</text><text x="334" y="426" font-family="Poppins, Helvetica, Arial, sans-serif" font-size="12" font-weight="400" fill="#6B7C85" text-anchor="end">Off</text><g transform="translate(345.0 414.0) scale(0.5833333333333334)" fill="none" stroke="#9AA8B0" stroke-width="2" stroke-linecap="round" stroke-linejoin="round"><path d="M9 5l7 7-7 7"/></g><line x1="82" y1="444" x2="366" y2="444" stroke="#E6ECEF" stroke-width="1"/><g transform="translate(41.0 456.0) scale(0.9166666666666666)" fill="none" stroke="#14909A" stroke-width="1.7" stroke-linecap="round" stroke-linejoin="round"><circle cx="12" cy="12" r="9"/><path d="M3 12h18M12 3c3 3 3 15 0 18M12 3c-3 3-3 15 0 18"/></g><text x="82" y="472" font-family="Poppins, Helvetica, Arial, sans-serif" font-size="13.5" font-weight="500" fill="#12303A" text-anchor="start">Language</text><text x="334" y="472" font-family="Poppins, Helvetica, Arial, sans-serif" font-size="12" font-weight="400" fill="#6B7C85" text-anchor="end">English</text><g transform="translate(345.0 460.0) scale(0.5833333333333334)" fill="none" stroke="#9AA8B0" stroke-width="2" stroke-linecap="round" stroke-linejoin="round"><path d="M9 5l7 7-7 7"/></g><line x1="82" y1="490" x2="366" y2="490" stroke="#E6ECEF" stroke-width="1"/><g transform="translate(41.0 502.0) scale(0.9166666666666666)" fill="none" stroke="#14909A" stroke-width="1.7" stroke-linecap="round" stroke-linejoin="round"><path d="M20 14A8 8 0 0 1 10 4a8 8 0 1 0 10 10z"/></g><text x="82" y="518" font-family="Poppins, Helvetica, Arial, sans-serif" font-size="13.5" font-weight="500" fill="#12303A" text-anchor="start">Appearance</text><text x="334" y="518" font-family="Poppins, Helvetica, Arial, sans-serif" font-size="12" font-weight="400" fill="#6B7C85" text-anchor="end">System</text><g transform="translate(345.0 506.0) scale(0.5833333333333334)" fill="none" stroke="#9AA8B0" stroke-width="2" stroke-linecap="round" stroke-linejoin="round"><path d="M9 5l7 7-7 7"/></g><line x1="82" y1="536" x2="366" y2="536" stroke="#E6ECEF" stroke-width="1"/><g transform="translate(41.0 548.0) scale(0.9166666666666666)" fill="none" stroke="#14909A" stroke-width="1.7" stroke-linecap="round" stroke-linejoin="round"><path d="M12 3l2.8 6 6.2.7-4.6 4.2 1.3 6.1L12 17l-5.7 3 1.3-6.1L3 9.7 9.2 9z"/></g><text x="82" y="564" font-family="Poppins, Helvetica, Arial, sans-serif" font-size="13.5" font-weight="500" fill="#12303A" text-anchor="start">Rate ClearScan</text><g transform="translate(345.0 552.0) scale(0.5833333333333334)" fill="none" stroke="#9AA8B0" stroke-width="2" stroke-linecap="round" stroke-linejoin="round"><path d="M9 5l7 7-7 7"/></g><line x1="82" y1="582" x2="366" y2="582" stroke="#E6ECEF" stroke-width="1"/><g transform="translate(41.0 594.0) scale(0.9166666666666666)" fill="none" stroke="#14909A" stroke-width="1.7" stroke-linecap="round" stroke-linejoin="round"><circle cx="12" cy="12" r="9"/><path d="M9.5 9.5a2.5 2.5 0 1 1 3.5 2.3c-.7.4-1 1-1 1.7M12 17v.5"/></g><text x="82" y="610" font-family="Poppins, Helvetica, Arial, sans-serif" font-size="13.5" font-weight="500" fill="#12303A" text-anchor="start">Help &amp; Support</text><g transform="translate(345.0 598.0) scale(0.5833333333333334)" fill="none" stroke="#9AA8B0" stroke-width="2" stroke-linecap="round" stroke-linejoin="round"><path d="M9 5l7 7-7 7"/></g><line x1="82" y1="628" x2="366" y2="628" stroke="#E6ECEF" stroke-width="1"/><g transform="translate(41.0 640.0) scale(0.9166666666666666)" fill="none" stroke="#14909A" stroke-width="1.7" stroke-linecap="round" stroke-linejoin="round"><circle cx="12" cy="12" r="9"/><path d="M12 11v6M12 7.5v.5"/></g><text x="82" y="656" font-family="Poppins, Helvetica, Arial, sans-serif" font-size="13.5" font-weight="500" fill="#12303A" text-anchor="start">About</text><text x="334" y="656" font-family="Poppins, Helvetica, Arial, sans-serif" font-size="12" font-weight="400" fill="#6B7C85" text-anchor="end">v1.0.0</text><g transform="translate(345.0 644.0) scale(0.5833333333333334)" fill="none" stroke="#9AA8B0" stroke-width="2" stroke-linecap="round" stroke-linejoin="round"><path d="M9 5l7 7-7 7"/></g><rect x="0" y="716" width="390" height="84" rx="0" fill="#FFFFFF"/><line x1="0" y1="716" x2="390" y2="716" stroke="#E6ECEF" stroke-width="1"/><g transform="translate(36.0 730.0) scale(1.0)" fill="none" stroke="#6B7C85" stroke-width="1.8" stroke-linecap="round" stroke-linejoin="round"><path d="M3 11l9-8 9 8v9a1 1 0 0 1-1 1h-5v-6h-6v6H4a1 1 0 0 1-1-1z"/></g><text x="48" y="774" font-family="Poppins, Helvetica, Arial, sans-serif" font-size="10.5" font-weight="400" fill="#6B7C85" text-anchor="middle">Home</text><g transform="translate(114.0 730.0) scale(1.0)" fill="none" stroke="#6B7C85" stroke-width="1.8" stroke-linecap="round" stroke-linejoin="round"><path d="M6 3h8l5 5v13H6z"/><path d="M14 3v5h5M9 13h7M9 17h7"/></g><text x="126" y="774" font-family="Poppins, Helvetica, Arial, sans-serif" font-size="10.5" font-weight="400" fill="#6B7C85" text-anchor="middle">Documents</text><g transform="translate(258.0 730.0) scale(1.0)" fill="none" stroke="#6B7C85" stroke-width="1.8" stroke-linecap="round" stroke-linejoin="round"><path d="M15 5a4 4 0 0 0-4 5L4 17a2 2 0 0 0 3 3l7-7a4 4 0 0 0 5-4l-3 3-3-1-1-3z"/></g><text x="270" y="774" font-family="Poppins, Helvetica, Arial, sans-serif" font-size="10.5" font-weight="400" fill="#6B7C85" text-anchor="middle">Tools</text><g transform="translate(333.0 730.0) scale(1.0)" fill="#E3F3F4" stroke="#14909A" stroke-width="1.8" stroke-linecap="round" stroke-linejoin="round"><circle cx="12" cy="8" r="4"/><path d="M4 21c0-4 4-6 8-6s8 2 8 6"/></g><text x="345" y="774" font-family="Poppins, Helvetica, Arial, sans-serif" font-size="10.5" font-weight="500" fill="#14909A" text-anchor="middle">Profile</text><circle cx="195" cy="727" r="36" fill="#FFFFFF"/><circle cx="195" cy="731" r="33" fill="#12303A"/><g transform="translate(181.0 717.0) scale(1.1666666666666667)" fill="none" stroke="#FFFFFF" stroke-width="2" stroke-linecap="round" stroke-linejoin="round"><path d="M4 8h3l2-3h6l2 3h3v11H4z"/><circle cx="12" cy="13" r="3.5"/></g><rect x="145" y="788" width="100" height="4" rx="2" fill="#222"/></g></svg>